<svg width="18" height="18" viewBox="0 0 18 18" fill="none" xmlns="http://www.w3.org/2000/svg">
<path d="M17.8054 16.8973L9.56757 0.421622C9.40541 0.0648649 9.24324 0 9.04865 0C8.88649 0 8.69189 0.0648649 8.4973 0.389189C7.32973 2.23784 6.81081 4.37838 6.81081 6.61622C6.81081 9.72973 8.4 12.6487 10.7351 17.3514C10.9946 17.8703 11.1892 17.9676 11.6432 17.9676H17.3514C17.773 17.9676 18 17.8054 18 17.4811C18 17.3189 17.9676 17.2216 17.8054 16.8973ZM5.83784 9.11351C5.18919 8.14054 4.99459 8.07568 4.83243 8.07568C4.67027 8.07568 4.57297 8.14054 4.28108 8.72433L0.162162 16.9622C0.0324324 17.2216 0 17.3189 0 17.4487C0 17.7081 0.227027 17.9676 0.713514 17.9676H6.51892C6.90811 17.9676 7.2 17.6432 7.36216 17.027C7.55676 16.2487 7.62162 15.5676 7.62162 14.7568C7.62162 12.4865 6.61622 10.2811 5.83784 9.11351Z" fill="#1868DB"/>
</svg>
