<svg width="12" height="16" viewBox="0 0 12 16" fill="none" xmlns="http://www.w3.org/2000/svg">
<path d="M12 11.0226C12 8.30771 10.5883 7.05884 6.51585 6.19006C4.2896 5.70137 3.74661 5.21268 3.74661 4.5068C3.74661 3.63802 4.5611 3.25793 6.02717 3.25793C7.81902 3.25793 9.55658 3.80091 11.2398 4.5611V1.03168C10.0453 0.43439 8.25341 0 6.13576 0C2.11765 0 0.0543021 1.73756 0.0543021 4.5611C0.0543021 6.84164 1.08597 8.6335 5.26698 9.44798C7.71042 9.99097 8.25341 10.3711 8.25341 11.1855C8.25341 12 7.71042 12.4887 5.97286 12.4887C3.96381 12.4887 1.57466 11.7828 0 10.8598V14.5521C1.24887 15.1494 2.87783 15.8552 5.97286 15.8552C10.2625 15.8552 12 13.9005 12 11.0226Z" fill="#1868DB"/>
</svg>
