<svg width="12" height="16" viewBox="0 0 12 16" fill="none" xmlns="http://www.w3.org/2000/svg">
<path d="M0.0543021 4.4525C0.0543021 6.73305 1.08598 8.5249 5.26699 9.33939C7.71043 9.88237 8.25342 10.2625 8.25342 11.0769C8.25342 11.8914 7.71042 12.3801 5.97286 12.3801C3.96381 12.3801 1.57466 11.6742 0 10.7512V14.4435C1.24887 15.0408 2.87783 15.7466 5.97286 15.7466C10.3168 15.7466 12 13.7919 12 10.9683M12 11.0226C12 8.30771 10.5883 7.05884 6.51585 6.19006C4.2896 5.70137 3.74662 5.21268 3.74662 4.5068C3.74662 3.63802 4.5611 3.25793 6.02717 3.25793C7.81902 3.25793 9.55659 3.80091 11.2398 4.5611V1.03168C10.0453 0.43439 8.25341 0 6.13576 0C2.11765 0 0.0543021 1.73756 0.0543021 4.5611" fill="#1868DB"/>
</svg>
